<svg width="170" height="30" viewBox="0 0 170 30" fill="none" xmlns="http://www.w3.org/2000/svg">
<path d="M22.7784 9.70752V21.6435C22.7784 24.5954 21.8616 26.6673 20.0282 27.859C18.1947 29.0325 15.3344 29.6192 11.4474 29.6192C10.4024 29.6192 9.46727 29.5825 8.64221 29.5092C7.83547 29.4542 6.97373 29.335 6.05699 29.1516C5.14025 28.9683 4.35185 28.6933 3.69179 28.3266C3.05007 27.9415 2.45419 27.4648 1.90414 26.8965C1.3541 26.3281 0.932394 25.6038 0.639036 24.7238C0.364013 23.8254 0.226501 22.7986 0.226501 21.6435V9.70752H6.90956V21.1485C6.90956 22.5419 7.32209 23.6145 8.14716 24.3662C8.97223 25.0996 10.0815 25.4663 11.4749 25.4663C12.8867 25.4663 14.0052 25.1271 14.8302 24.4488C15.6736 23.752 16.0953 22.7253 16.0953 21.3685V9.70752H22.7784Z" fill="white"/>
<path d="M55.0025 28.9591H48.2644V22.5511C48.2644 19.9475 48.3011 17.9582 48.3744 16.5831H48.3194L43.0665 28.9591H38.0336L32.6431 16.6381H32.5881C32.6431 17.4082 32.6706 19.4067 32.6706 22.6336V28.9591H25.9326V9.70752H34.9533L40.4538 22.0836H40.5088L46.0367 9.70752H55.0025V28.9591Z" fill="white"/>
<path d="M81.123 28.9591H73.8899L73.0098 26.4014H64.4841L63.5215 28.9591H56.3709L64.7866 9.70752H72.5698L81.123 28.9591ZM71.1947 21.8085L68.637 14.988L66.2168 21.8085H71.1947Z" fill="white"/>
<path d="M104.469 15.8405C104.469 17.4173 104.002 18.7283 103.067 19.7734C102.132 20.8184 100.995 21.4785 99.6563 21.7535L104.332 28.9591H96.7961L92.6708 21.9735H89.3155V28.9591H82.4949V9.70752H97.6212C99.638 9.70752 101.279 10.2759 102.544 11.4127C103.828 12.5311 104.469 14.007 104.469 15.8405ZM97.3736 15.8405C97.3736 15.2538 97.1995 14.8046 96.8511 14.4929C96.5211 14.1629 96.081 13.9979 95.531 13.9979H89.3155V17.6557H95.531C96.7594 17.6557 97.3736 17.0506 97.3736 15.8405Z" fill="white"/>
<path d="M128.71 28.9591H121.367L116.857 20.8735L114.051 23.7612V28.9591H107.231V9.70752H114.051V16.7206L120.322 9.70752H128.27L121.642 16.6656L128.71 28.9591Z" fill="white"/>
<path d="M136.949 28.9591H130.624V24.2837H136.949V28.9591Z" fill="white"/>
<path d="M147.06 28.9591H140.239V9.70752H147.06V28.9591Z" fill="white"/>
<path d="M169.863 14.3829H162.905V28.9591H156.085V14.3829H149.127V9.70752H169.863V14.3829Z" fill="white"/>
<circle cx="3.72828" cy="3.72828" r="3.72828" fill="white"/>
<circle cx="19.3091" cy="3.72828" r="3.72828" fill="white"/>
<rect x="140.157" y="0.295654" width="6.86437" height="6.86437" fill="white"/>
</svg>
