<svg width="216" height="217" viewBox="0 0 216 217" fill="none" xmlns="http://www.w3.org/2000/svg">
<path fill-rule="evenodd" clip-rule="evenodd" d="M79.4219 0.43295C44.1508 1.95781 22.1583 6.51642 14.6012 13.8704C7.00569 21.2609 3.11869 36.7629 0.620738 69.6288C-0.206603 80.5173 -0.207068 136.498 0.620274 147.538C2.93926 178.477 6.74991 194.483 13.6197 202.137C17.7827 206.776 27.9586 210.697 41.709 212.959C57.5461 215.564 73.326 216.63 100.738 216.943C158.177 217.601 193.055 212.527 202.359 202.16C209.148 194.595 213.044 178.115 215.381 147.068C216.209 136.076 216.205 80.5576 215.377 69.6288C212.886 36.7873 208.994 21.2614 201.398 13.8704C191.734 4.46685 159.56 -0.203465 105.891 0.00679515C95.8423 0.046219 83.9311 0.238178 79.4219 0.43295ZM73.3317 54.1709C81.6992 55.2893 94.4134 58.1884 94.4134 58.9778C94.4134 59.5452 89.8106 74.5812 89.5435 74.8867C89.4976 74.9393 87.9919 74.4483 86.1976 73.7955C81.2949 72.012 72.4846 69.9723 67.1421 69.3833C62.5167 68.8731 59.4032 69.0177 55.9434 69.9019C51.0515 71.1527 49.9047 77.0897 53.8798 80.5867C56.0681 82.5114 59.287 83.6059 67.7286 85.295C81.339 88.019 89.4718 91.5897 94.6177 97.1011C97.9326 100.651 99.6365 104.692 99.9199 109.675C100.919 127.268 87.2278 136.667 63.5361 134.652C56.3805 134.044 46.4904 132.37 37.8408 130.305C32.0934 128.933 31.6507 128.749 31.9103 127.854C32.0649 127.322 33.2412 123.54 34.5253 119.45C36.4686 113.256 36.9905 112.054 37.6445 112.265C38.0764 112.405 40.5809 113.279 43.2096 114.208C52.9747 117.659 65.6326 119.687 71.5987 118.756C77.3906 117.853 79.4238 116.099 79.4201 112.009C79.4177 109.385 78.1256 107.312 75.5865 105.857C72.7976 104.26 70.1099 103.467 61.1511 101.601C56.8996 100.716 52.0508 99.5303 50.376 98.9662C42.0684 96.169 35.407 91.0946 32.8111 85.586C31.7069 83.2427 31.4479 81.9769 31.2684 78.0467C30.9171 70.3403 32.6008 65.1875 36.8677 60.9133C43.7488 54.0198 55.6867 51.812 73.3317 54.1709ZM161.641 54.1906C165.959 55.056 171.865 58.0025 174.655 60.6824C179.489 65.3273 182.729 72.6414 184.183 82.1899C185.158 88.5921 184.835 107.294 183.658 112.56C181.882 120.513 179.561 125.358 175.646 129.292C169.728 135.238 160.995 137.916 147.523 137.916C140.298 137.916 135.834 136.994 130.838 134.469L126.739 132.398V149.237V166.076H133.766H140.793V173.116V180.156H119.699H98.6049L98.7342 173.234L98.864 166.311L105.774 166.181L112.684 166.051V117.723V69.3941H105.657H98.6297V62.3541V55.3142H112.684H126.739V57.9016V60.4885L128.686 59.2575C133.147 56.4363 140.095 54.1225 146.181 53.4322C150.237 52.9722 157.287 53.3181 161.641 54.1906ZM142.015 67.2924C136.506 68.8079 129.271 73.8288 127.414 77.4248C126.862 78.4949 126.739 81.8502 126.739 95.7916V112.849L128.261 115.393C130.112 118.485 134.434 122.072 137.963 123.444C141.153 124.684 148.039 125.105 152.869 124.354C158.163 123.531 161.279 122.148 164.014 119.408C168.317 115.098 169.864 108.831 169.873 95.6766C169.886 77.5121 166.26 69.8132 156.506 67.2981C153.084 66.4157 145.213 66.4124 142.015 67.2924Z" fill="white"/>
</svg>
