<svg width="100" height="100" viewBox="0 0 100 100" fill="none" xmlns="http://www.w3.org/2000/svg">
<circle cx="50" cy="50" r="50" fill="url(#paint0_linear)"/>
<path d="M46.032 62.835C43.582 66.069 40.1683 67.686 35.791 67.686C31.4136 67.686 27.9836 66.069 25.501 62.835C23.051 59.5683 21.826 55.24 21.826 49.85C21.826 44.46 23.051 40.148 25.501 36.914C27.9836 33.6473 31.4136 32.014 35.791 32.014C40.1683 32.014 43.582 33.6473 46.032 36.914C48.5146 40.148 49.756 44.46 49.756 49.85C49.756 55.24 48.5146 59.5683 46.032 62.835ZM29.666 49.85C29.666 56.6447 31.7076 60.042 35.791 60.042C39.8743 60.042 41.916 56.6447 41.916 49.85C41.916 43.0553 39.8743 39.658 35.791 39.658C31.7076 39.658 29.666 43.0553 29.666 49.85ZM79.1502 54.26V61.512H75.7202V67H67.7822V61.512H52.2002V54.26L63.1272 32.7H71.5552L60.6282 54.26H67.7822V46.91H75.7202V54.26H79.1502Z" fill="#151420"/>
<defs>
<linearGradient id="paint0_linear" x1="84.8441" y1="189.341" x2="-1.83038" y2="183.997" gradientUnits="userSpaceOnUse">
<stop stop-color="#1FFF94"/>
<stop offset="1" stop-color="#00FFFF"/>
</linearGradient>
</defs>
</svg>
