<svg width="100" height="100" viewBox="0 0 100 100" fill="none" xmlns="http://www.w3.org/2000/svg">
<circle cx="50" cy="50" r="50" fill="url(#paint0_linear)"/>
<path d="M50.841 62.835C48.391 66.069 44.9774 67.686 40.6 67.686C36.2227 67.686 32.7927 66.069 30.31 62.835C27.86 59.5683 26.635 55.24 26.635 49.85C26.635 44.46 27.86 40.148 30.31 36.914C32.7927 33.6473 36.2227 32.014 40.6 32.014C44.9774 32.014 48.391 33.6473 50.841 36.914C53.3237 40.148 54.565 44.46 54.565 49.85C54.565 55.24 53.3237 59.5683 50.841 62.835ZM34.475 49.85C34.475 56.6447 36.5167 60.042 40.6 60.042C44.6834 60.042 46.725 56.6447 46.725 49.85C46.725 43.0553 44.6834 39.658 40.6 39.658C36.5167 39.658 34.475 43.0553 34.475 49.85ZM64.5293 32.7H71.3893V67H63.5493V40.981L57.4733 42.647L55.5623 35.934L64.5293 32.7Z" fill="#151420"/>
<defs>
<linearGradient id="paint0_linear" x1="84.8441" y1="189.341" x2="-1.83038" y2="183.997" gradientUnits="userSpaceOnUse">
<stop stop-color="#1FFF94"/>
<stop offset="1" stop-color="#00FFFF"/>
</linearGradient>
</defs>
</svg>
