<svg width="100" height="100" viewBox="0 0 100 100" fill="none" xmlns="http://www.w3.org/2000/svg">
<circle cx="50" cy="50" r="50" fill="url(#paint0_linear)"/>
<path d="M48.1589 62.835C45.7089 66.069 42.2952 67.686 37.9179 67.686C33.5406 67.686 30.1106 66.069 27.6279 62.835C25.1779 59.5683 23.9529 55.24 23.9529 49.85C23.9529 44.46 25.1779 40.148 27.6279 36.914C30.1106 33.6473 33.5406 32.014 37.9179 32.014C42.2952 32.014 45.7089 33.6473 48.1589 36.914C50.6416 40.148 51.8829 44.46 51.8829 49.85C51.8829 55.24 50.6416 59.5683 48.1589 62.835ZM31.7929 49.85C31.7929 56.6447 33.8346 60.042 37.9179 60.042C42.0012 60.042 44.0429 56.6447 44.0429 49.85C44.0429 43.0553 42.0012 39.658 37.9179 39.658C33.8346 39.658 31.7929 43.0553 31.7929 49.85ZM53.4681 67V61.316L64.9831 49.36C67.3025 46.9753 68.4621 44.95 68.4621 43.284C68.4621 42.206 68.1355 41.3403 67.4821 40.687C66.8288 40.001 65.9305 39.658 64.7871 39.658C62.5005 39.658 60.8181 40.8993 59.7401 43.382L53.1251 39.511C54.1705 37.061 55.7385 35.199 57.8291 33.925C59.9198 32.651 62.2065 32.014 64.6891 32.014C67.8905 32.014 70.6181 33.0103 72.8721 35.003C75.1588 36.963 76.3021 39.609 76.3021 42.941C76.3021 46.567 74.5218 50.1603 70.9611 53.721L65.2771 59.454H76.7921V67H53.4681Z" fill="#151420"/>
<defs>
<linearGradient id="paint0_linear" x1="84.8441" y1="189.341" x2="-1.83038" y2="183.997" gradientUnits="userSpaceOnUse">
<stop stop-color="#1FFF94"/>
<stop offset="1" stop-color="#00FFFF"/>
</linearGradient>
</defs>
</svg>
