<svg width="100" height="100" viewBox="0 0 100 100" fill="none" xmlns="http://www.w3.org/2000/svg">
<circle cx="50" cy="50" r="50" fill="url(#paint0_linear)"/>
<path d="M48.0154 62.835C45.5654 66.069 42.1517 67.686 37.7744 67.686C33.397 67.686 29.967 66.069 27.4844 62.835C25.0344 59.5683 23.8094 55.24 23.8094 49.85C23.8094 44.46 25.0344 40.148 27.4844 36.914C29.967 33.6473 33.397 32.014 37.7744 32.014C42.1517 32.014 45.5654 33.6473 48.0154 36.914C50.498 40.148 51.7394 44.46 51.7394 49.85C51.7394 55.24 50.498 59.5683 48.0154 62.835ZM31.6494 49.85C31.6494 56.6447 33.691 60.042 37.7744 60.042C41.8577 60.042 43.8994 56.6447 43.8994 49.85C43.8994 43.0553 41.8577 39.658 37.7744 39.658C33.691 39.658 31.6494 43.0553 31.6494 49.85ZM69.8992 46.616C72.0879 47.3673 73.8519 48.5923 75.1912 50.291C76.5306 51.957 77.2002 53.9333 77.2002 56.22C77.2002 59.8133 75.9915 62.6227 73.5742 64.648C71.1569 66.6733 68.2005 67.686 64.7052 67.686C61.9939 67.686 59.5602 67.0653 57.4042 65.824C55.2809 64.5827 53.7129 62.7533 52.7002 60.336L59.4622 56.416C60.3115 58.8333 62.0592 60.042 64.7052 60.042C66.2405 60.042 67.4002 59.6827 68.1842 58.964C68.9682 58.2453 69.3602 57.3307 69.3602 56.22C69.3602 55.1093 68.9682 54.1947 68.1842 53.476C67.4002 52.7573 66.2405 52.398 64.7052 52.398H63.0882L60.0992 47.939L66.3222 40.05H53.7782V32.7H75.8282V39.07L69.8992 46.616Z" fill="#151420"/>
<defs>
<linearGradient id="paint0_linear" x1="84.8441" y1="189.341" x2="-1.83038" y2="183.997" gradientUnits="userSpaceOnUse">
<stop stop-color="#1FFF94"/>
<stop offset="1" stop-color="#00FFFF"/>
</linearGradient>
</defs>
</svg>
