<svg width="100" height="100" viewBox="0 0 100 100" fill="none" xmlns="http://www.w3.org/2000/svg">
<circle cx="50" cy="50" r="50" fill="url(#paint0_linear)"/>
<path d="M47.0129 62.835C44.5629 66.069 41.1492 67.686 36.7719 67.686C32.3946 67.686 28.9646 66.069 26.4819 62.835C24.0319 59.5683 22.8069 55.24 22.8069 49.85C22.8069 44.46 24.0319 40.148 26.4819 36.914C28.9646 33.6473 32.3946 32.014 36.7719 32.014C41.1492 32.014 44.5629 33.6473 47.0129 36.914C49.4956 40.148 50.7369 44.46 50.7369 49.85C50.7369 55.24 49.4956 59.5683 47.0129 62.835ZM30.6469 49.85C30.6469 56.6447 32.6886 60.042 36.7719 60.042C40.8552 60.042 42.8969 56.6447 42.8969 49.85C42.8969 43.0553 40.8552 39.658 36.7719 39.658C32.6886 39.658 30.6469 43.0553 30.6469 49.85ZM65.6877 44.754C69.0523 44.754 71.8453 45.7667 74.0667 47.792C76.3207 49.7847 77.4477 52.594 77.4477 56.22C77.4477 59.8133 76.239 62.6227 73.8217 64.648C71.4043 66.6733 68.448 67.686 64.9527 67.686C62.1107 67.686 59.6117 67.0817 57.4557 65.873C55.2997 64.6317 53.7153 62.786 52.7027 60.336L59.4647 56.416C60.314 58.8333 62.1433 60.042 64.9527 60.042C66.488 60.042 67.6477 59.6827 68.4317 58.964C69.2157 58.2453 69.6077 57.3307 69.6077 56.22C69.6077 55.1093 69.232 54.1947 68.4807 53.476C67.7293 52.7573 66.635 52.398 65.1977 52.398H54.4667L55.8877 32.7H75.7327V40.05H63.2377L62.8947 44.754H65.6877Z" fill="#151420"/>
<defs>
<linearGradient id="paint0_linear" x1="84.8441" y1="189.341" x2="-1.83038" y2="183.997" gradientUnits="userSpaceOnUse">
<stop stop-color="#1FFF94"/>
<stop offset="1" stop-color="#00FFFF"/>
</linearGradient>
</defs>
</svg>
