<svg width="100" height="100" viewBox="0 0 100 100" fill="none" xmlns="http://www.w3.org/2000/svg">
<circle cx="50" cy="50" r="50" fill="url(#paint0_linear)"/>
<path d="M47.0344 62.835C44.5844 66.069 41.1707 67.686 36.7934 67.686C32.4161 67.686 28.9861 66.069 26.5034 62.835C24.0534 59.5683 22.8284 55.24 22.8284 49.85C22.8284 44.46 24.0534 40.148 26.5034 36.914C28.9861 33.6473 32.4161 32.014 36.7934 32.014C41.1707 32.014 44.5844 33.6473 47.0344 36.914C49.5171 40.148 50.7584 44.46 50.7584 49.85C50.7584 55.24 49.5171 59.5683 47.0344 62.835ZM30.6684 49.85C30.6684 56.6447 32.7101 60.042 36.7934 60.042C40.8767 60.042 42.9184 56.6447 42.9184 49.85C42.9184 43.0553 40.8767 39.658 36.7934 39.658C32.7101 39.658 30.6684 43.0553 30.6684 49.85ZM67.2657 43.529C70.663 43.7903 73.407 45.0317 75.4977 47.253C77.621 49.4743 78.6827 52.251 78.6827 55.583C78.6827 59.1437 77.4903 62.051 75.1057 64.305C72.7537 66.559 69.6993 67.686 65.9427 67.686C62.1533 67.686 59.0827 66.559 56.7307 64.305C54.3787 62.051 53.2027 59.1437 53.2027 55.583C53.2027 52.937 53.8723 50.6177 55.2117 48.625L65.6977 32.7H74.7137L67.2657 43.529ZM62.4637 59.062C63.411 59.9113 64.5707 60.336 65.9427 60.336C67.3147 60.336 68.4743 59.9113 69.4217 59.062C70.369 58.18 70.8427 57.0203 70.8427 55.583C70.8427 54.1457 70.369 53.0023 69.4217 52.153C68.4743 51.271 67.3147 50.83 65.9427 50.83C64.5707 50.83 63.411 51.2547 62.4637 52.104C61.5163 52.9533 61.0427 54.113 61.0427 55.583C61.0427 57.053 61.5163 58.2127 62.4637 59.062Z" fill="#151420"/>
<defs>
<linearGradient id="paint0_linear" x1="84.8441" y1="189.341" x2="-1.83038" y2="183.997" gradientUnits="userSpaceOnUse">
<stop stop-color="#1FFF94"/>
<stop offset="1" stop-color="#00FFFF"/>
</linearGradient>
</defs>
</svg>
