<svg width="20" height="18" viewBox="0 0 20 18" fill="none" xmlns="http://www.w3.org/2000/svg">
<path d="M18.8247 1.11321L18.3124 0.652737C17.4621 -0.111807 16.1844 -0.0265857 15.4337 0.844445L6.86428 10.7863L4.27757 8.45528C3.42816 7.68988 2.15021 7.77338 1.3986 8.64347L0.945681 9.16786C0.57838 9.59287 0.387669 10.1535 0.415365 10.7262C0.443333 11.2985 0.687369 11.8359 1.09418 12.22L5.83575 16.7631C6.24627 17.1665 6.79644 17.3769 7.35878 17.3457C7.92113 17.3145 8.44688 17.0442 8.81422 16.5976L19.0439 4.16086C19.4013 3.72634 19.579 3.16114 19.5378 2.58965C19.4966 2.01775 19.2402 1.48675 18.8247 1.11321Z" fill="#201F2C"/>
</svg>
